# xmcd
#
# Track frame offsets: 
#        150
#        13615
#        30155
#        48376
#        65294
#        75460
#        93411
#        111372
#        130410
#        141970
#        157364
#        175569
#        195073
#        211937
#        227749
#        244885
#        267324
#        286001
#        303328
#        315752
#        323984
#        341823
#
# Disc length: 4729 seconds
#
# Revision: 1
# Processed by: cddbd v1.5.2PL0 Copyright (c) Steve Scherf et al.
# Submitted via: ExactAudioCopyFreeDBPlugin 1.0
#
DISCID=27127716
DTITLE=Various Artist - Saturday Night Country Vol4 - australia's home of cou
DTITLE=ntry music
DYEAR=2008
DGENRE=Country
TTITLE0=Jimmy Barnes - Better Off Alone
TTITLE1=James Blundell - Ring Around The Moon
TTITLE2=Paul Kelly - The Foggy Fields Of France
TTITLE3=Beccy Cole - Lifeboat
TTITLE4=Trev Warner - Old Country Home
TTITLE5=Travis Collins - Didn't We Love
TTITLE6=Kellie Cain - Ballad Of Mary Jackson
TTITLE7=Nik Phillips - Postcard
TTITLE8=Elana James - One More Night
TTITLE9=Amos Morris - Sign Of The Times
TTITLE10=Lee Kernaghan - Tenterfield Saddler
TTITLE11=The Bob Katz - Man In The Picture
TTITLE12=Peter Pratt - Never Never
TTITLE13=Harmony James - Home
TTITLE14=Lou Bradley - One Shoe
TTITLE15=Dianna Corcoran - Love Wins
TTITLE16=Bob Pigott - Grandad's Violin
TTITLE17=Amber Lawrence - Gonna Fly
TTITLE18=Luke O'Shea and Medicine Wheel - Making Memories
TTITLE19=Gina Jeffreys - You Make My Heart Sing
TTITLE20=Sunny Sweeney - 16th Avenue
TTITLE21=John Swan - Speak To The Sky
EXTD=
EXTT0=
EXTT1=
EXTT2=
EXTT3=
EXTT4=
EXTT5=
EXTT6=
EXTT7=
EXTT8=
EXTT9=
EXTT10=
EXTT11=
EXTT12=
EXTT13=
EXTT14=
EXTT15=
EXTT16=
EXTT17=
EXTT18=
EXTT19=
EXTT20=
EXTT21=
PLAYORDER=
